<svg width="16" height="16" viewBox="0 0 16 16" fill="none" xmlns="http://www.w3.org/2000/svg"><path d="M6.95312 11.5996C6.95312 12.3699 7.51386 12.9965 8.20312 12.9965C8.89239 12.9965 9.45312 12.3699 9.45312 11.5996H6.95312Z" fill="#B75309"></path><path d="M11.2 9.48357V6.63981C11.2 4.78162 9.94308 3.25301 8.33155 3.0668C8.45433 2.95703 8.53334 2.78814 8.53334 2.59868C8.53334 2.26857 8.29409 2 8.00001 2C7.70593 2 7.46668 2.26857 7.46668 2.59868C7.46668 2.78814 7.54572 2.95703 7.66847 3.0668C6.05694 3.25301 4.80001 4.78162 4.80001 6.63981V9.48357H4V10.3816H12V9.48357H11.2Z" fill="#B75309"></path></svg>