<svg width="32" height="32" viewBox="0 0 32 32" fill="none" xmlns="http://www.w3.org/2000/svg">
<path d="M5.34863 25.5L5.34863 6.5L27.6214 6.5V25.5H5.34863Z" stroke="#9BACB5"/>
<rect x="7.75781" y="12" width="2.90909" height="3" fill="#9BACB5"/>
<rect x="7.75781" y="16" width="2.90909" height="3" fill="#9BACB5"/>
<rect x="7.75781" y="20" width="2.90909" height="3" fill="#9BACB5"/>
<rect x="12.6064" y="12" width="2.90909" height="3" fill="#9BACB5"/>
<rect x="12.6064" y="16" width="2.90909" height="3" fill="#9BACB5"/>
<rect x="12.6064" y="20" width="2.90909" height="3" fill="#9BACB5"/>
<rect x="17.4551" y="12" width="2.90909" height="3" fill="#9BACB5"/>
<rect x="22.3027" y="12" width="2.90909" height="3" fill="#9BACB5"/>
<rect x="22.3027" y="16" width="2.90909" height="3" fill="#9BACB5"/>
<rect x="22.3027" y="20" width="2.90909" height="3" fill="#9BACB5"/>
<rect x="17.4551" y="16" width="2.90909" height="3" fill="#9BACB5"/>
<rect x="17.4551" y="20" width="2.90909" height="3" fill="#9BACB5"/>
<rect x="4.84863" y="6" width="23.2727" height="4" fill="#9BACB5"/>
</svg>
