<svg width="15" height="20" viewBox="0 0 15 20" fill="none" xmlns="http://www.w3.org/2000/svg">
<path d="M0 0H10L15 5V20H0V0Z" fill="#DEE5E9"/>
<path d="M10 0L12.6667 2.66667L15 5H10V0Z" fill="#9BACB5"/>
<path d="M3.758 10.919C3.38933 10.919 3.10467 11.0613 2.904 11.346C2.708 11.626 2.61 12.0157 2.61 12.515C2.61 13.0237 2.70567 13.4133 2.897 13.684C3.08833 13.95 3.387 14.083 3.793 14.083C4.003 14.083 4.21067 14.0573 4.416 14.006C4.62133 13.95 4.83833 13.88 5.067 13.796V14.804C4.84767 14.8973 4.626 14.965 4.402 15.007C4.178 15.049 3.93533 15.07 3.674 15.07C3.142 15.07 2.708 14.9627 2.372 14.748C2.036 14.5333 1.78633 14.2347 1.623 13.852C1.46433 13.4693 1.385 13.0213 1.385 12.508C1.385 12.004 1.476 11.5583 1.658 11.171C1.84467 10.7837 2.11533 10.4803 2.47 10.261C2.82467 10.0417 3.25633 9.932 3.765 9.932C4.01233 9.932 4.26433 9.96233 4.521 10.023C4.77767 10.079 5.025 10.1653 5.263 10.282L4.892 11.234C4.70533 11.1453 4.51867 11.0707 4.332 11.01C4.14533 10.9493 3.954 10.919 3.758 10.919ZM9.18005 13.551C9.18005 13.8357 9.11005 14.0947 8.97005 14.328C8.83005 14.5567 8.62005 14.7387 8.34005 14.874C8.06005 15.0047 7.70771 15.07 7.28305 15.07C6.98438 15.07 6.71838 15.0443 6.48505 14.993C6.25638 14.9417 6.03238 14.8647 5.81305 14.762V13.677C6.06505 13.7937 6.32171 13.8917 6.58305 13.971C6.84905 14.0503 7.10338 14.09 7.34605 14.09C7.57938 14.09 7.74505 14.048 7.84305 13.964C7.94571 13.88 7.99705 13.7703 7.99705 13.635C7.99705 13.4717 7.91538 13.341 7.75205 13.243C7.59338 13.145 7.36238 13.026 7.05905 12.886C6.86305 12.7927 6.67171 12.6877 6.48505 12.571C6.30305 12.4497 6.15371 12.2957 6.03705 12.109C5.92038 11.9177 5.86205 11.6727 5.86205 11.374C5.86205 10.9073 6.02305 10.5503 6.34505 10.303C6.66705 10.0557 7.09871 9.932 7.64005 9.932C7.92938 9.932 8.19771 9.96467 8.44505 10.03C8.69705 10.0953 8.93971 10.1793 9.17305 10.282L8.79505 11.213C8.57105 11.115 8.36105 11.0403 8.16505 10.989C7.97371 10.933 7.78705 10.905 7.60505 10.905C7.41371 10.905 7.27138 10.9447 7.17805 11.024C7.08471 11.1033 7.03805 11.2037 7.03805 11.325C7.03805 11.423 7.07071 11.5093 7.13605 11.584C7.20138 11.654 7.30405 11.7263 7.44405 11.801C7.58405 11.8757 7.76838 11.9667 7.99705 12.074C8.24438 12.186 8.45671 12.3073 8.63405 12.438C8.81138 12.5687 8.94671 12.7227 9.04005 12.9C9.13338 13.0773 9.18005 13.2943 9.18005 13.551ZM14.1324 10.002L12.4594 15H11.1084L9.44238 10.002H10.7234L11.5354 12.774C11.5587 12.8487 11.5867 12.956 11.6194 13.096C11.6567 13.236 11.6917 13.383 11.7244 13.537C11.757 13.6863 11.778 13.81 11.7874 13.908C11.8014 13.81 11.8224 13.6863 11.8504 13.537C11.883 13.3877 11.9157 13.243 11.9484 13.103C11.9857 12.9583 12.0137 12.851 12.0324 12.781L12.8584 10.002H14.1324Z" fill="#00A04C"/>
</svg>
