<svg width="12" height="17" viewBox="0 0 12 17" fill="none" xmlns="http://www.w3.org/2000/svg">
    <path fill-rule="evenodd" clip-rule="evenodd" d="M10.8 6.95971V11.2254H12V12.5724H0V11.2254H1.20001V6.95971C1.20001 4.17243 3.08541 1.87952 5.5027 1.6002C5.31858 1.43555 5.20002 1.18221 5.20002 0.898022C5.20002 0.402856 5.5589 0 6.00001 0C6.44113 0 6.80001 0.402856 6.80001 0.898022C6.80001 1.18221 6.6815 1.43555 6.49733 1.6002C8.91462 1.87952 10.8 4.17243 10.8 6.95971ZM6.30505 16.4943C5.27115 16.4943 4.43005 15.5543 4.43005 14.3989H8.18005C8.18005 15.5543 7.33895 16.4943 6.30505 16.4943Z" fill="#9BACB5"></path>
</svg>
