<svg width="15" height="20" viewBox="0 0 15 20" fill="none" xmlns="http://www.w3.org/2000/svg">
<path d="M0 0H10L15 5V20H0V0Z" fill="#DEE5E9"/>
<path d="M10 0L12.6667 2.66667L15 5H10V0Z" fill="#9BACB5"/>
<path d="M3.247 10.002C3.88633 10.002 4.35767 10.1397 4.661 10.415C4.969 10.6903 5.123 11.0777 5.123 11.577C5.123 11.871 5.06233 12.1487 4.941 12.41C4.81967 12.6667 4.619 12.8767 4.339 13.04C4.059 13.1987 3.67867 13.278 3.198 13.278H2.778V15H1.588V10.002H3.247ZM3.205 10.975H2.778V12.305H3.093C3.33567 12.305 3.534 12.2513 3.688 12.144C3.842 12.0367 3.919 11.8593 3.919 11.612C3.919 11.1873 3.681 10.975 3.205 10.975ZM10.1832 12.424C10.1832 13.2827 9.94518 13.9267 9.46918 14.356C8.99318 14.7853 8.33751 15 7.50218 15H5.99718V10.002H7.64218C8.43085 10.002 9.05151 10.2097 9.50418 10.625C9.95685 11.0357 10.1832 11.6353 10.1832 12.424ZM8.95118 12.466C8.95118 11.9573 8.84151 11.5817 8.62218 11.339C8.40751 11.0963 8.09251 10.975 7.67718 10.975H7.18718V14.02H7.57218C8.04351 14.02 8.39118 13.8917 8.61518 13.635C8.83918 13.3737 8.95118 12.984 8.95118 12.466ZM12.3343 15H11.1583V10.002H14.0633V10.968H12.3343V12.102H13.9373V13.068H12.3343V15Z" fill="#CE0E0E"/>
</svg>
