<svg width="54" height="54" viewBox="0 0 54 54" fill="none" xmlns="http://www.w3.org/2000/svg">
<path d="M37 52H20H6V4H40V12H48V25" stroke="white" stroke-width="3"/>
<path d="M17 17H24" stroke="white" stroke-width="2.5" stroke-linecap="square"/>
<path d="M17 24H34" stroke="white" stroke-width="2.5" stroke-linecap="square"/>
<path d="M17 31H34" stroke="white" stroke-width="2.5" stroke-linecap="square"/>
<path d="M17 38H32" stroke="white" stroke-width="2.5" stroke-linecap="square"/>
<path fill-rule="evenodd" clip-rule="evenodd" d="M46.6788 30.5942C45.8906 29.3765 44.1089 29.3765 43.3208 30.5942L43.2234 30.7446C42.7723 31.4417 41.9374 31.7875 41.1255 31.6136L40.9503 31.5761C39.5319 31.2723 38.2721 32.5322 38.5758 33.9506L38.6134 34.1258C38.7872 34.9377 38.4414 35.7725 37.7444 36.2236L37.594 36.321C36.3762 37.1092 36.3762 38.8909 37.594 39.679L37.7444 39.7764C38.4414 40.2275 38.7872 41.0624 38.6134 41.8743L38.5758 42.0495C38.2721 43.4678 39.5319 44.7277 40.9503 44.424L41.1255 44.3864C41.9374 44.2126 42.7723 44.5584 43.2234 45.2554L43.3208 45.4058C44.1089 46.6236 45.8906 46.6236 46.6788 45.4058L46.7762 45.2554C47.2273 44.5584 48.0621 44.2126 48.874 44.3864L49.0492 44.424C50.4676 44.7277 51.7275 43.4678 51.4237 42.0495L51.3862 41.8743C51.2123 41.0624 51.5581 40.2275 52.2551 39.7764L52.4056 39.679C53.6233 38.8909 53.6233 37.1092 52.4056 36.321L52.2551 36.2236C51.5581 35.7725 51.2123 34.9377 51.3862 34.1258L51.4237 33.9506C51.7275 32.5322 50.4676 31.2723 49.0492 31.5761L48.874 31.6136C48.0621 31.7875 47.2273 31.4417 46.7762 30.7446L46.6788 30.5942ZM44.9998 42C47.2089 42 48.9998 40.2092 48.9998 38C48.9998 35.7909 47.2089 34 44.9998 34C42.7906 34 40.9998 35.7909 40.9998 38C40.9998 40.2092 42.7906 42 44.9998 42Z" fill="#FFEE00"/>
<circle cx="45" cy="38" r="2" fill="#FFEE00"/>
<path d="M42 44H48V53L45 51L42 53V44Z" fill="#FFEE00"/>
</svg>
