<svg width="54" height="54" viewBox="0 0 54 54" fill="none" xmlns="http://www.w3.org/2000/svg">
<g opacity="0.35">
<mask id="mask0" mask-type="alpha" maskUnits="userSpaceOnUse" x="3" y="3" width="46" height="50">
<path d="M41 11H49V3H48H3V53H4L19 43H49V29H42L37 34H31L30.5 33V30.5L41 11Z" fill="#C4C4C4"/>
</mask>
<g mask="url(#mask0)">
<path d="M17.4188 41.1863L5 50.0568V5H46V41H35H18H17.6795L17.4188 41.1863Z" stroke="white" stroke-width="2"/>
</g>
<path fill-rule="evenodd" clip-rule="evenodd" d="M32.5925 29.3542C31.8025 30.1442 31.8025 31.4252 32.5925 32.2153C33.3826 33.0053 34.6636 33.0053 35.4536 32.2153L44.2321 23.4368L41.371 20.5757L32.5925 29.3542ZM34.2953 31.5628C34.8649 31.5628 35.3266 31.1011 35.3266 30.5315C35.3266 29.9619 34.8649 29.5002 34.2953 29.5002C33.7258 29.5002 33.2641 29.9619 33.2641 30.5315C33.2641 31.1011 33.7258 31.5628 34.2953 31.5628Z" fill="white"/>
<path fill-rule="evenodd" clip-rule="evenodd" d="M42.2213 18.3621C41.8308 18.7527 41.8308 19.3858 42.2213 19.7763L45.403 22.958C45.7935 23.3485 46.4266 23.3485 46.8172 22.958L51.4416 18.3335C51.5352 18.2399 51.6219 18.1421 51.7016 18.0406C51.8957 18.6866 52 19.3715 52 20.0808C52 23.9914 48.8298 27.1616 44.9192 27.1616C41.0086 27.1616 37.8384 23.9914 37.8384 20.0808C37.8384 16.1702 41.0086 13 44.9192 13C45.7363 13 46.521 13.1384 47.2513 13.393C47.1092 13.495 46.9735 13.6099 46.8458 13.7376L42.2213 18.3621Z" fill="white"/>
<path d="M15 30H26.5" stroke="white" stroke-width="2.5" stroke-linecap="square"/>
<path d="M15 23H31.5" stroke="white" stroke-width="2.5" stroke-linecap="square"/>
<path d="M15 16H22.5" stroke="white" stroke-width="2.5" stroke-linecap="square"/>
</g>
</svg>
