<svg width="48" height="48" viewBox="0 0 48 48" fill="none" xmlns="http://www.w3.org/2000/svg">
<rect width="48" height="48" fill="#004F9B"/>
<rect x="11.5" y="11.5" width="5" height="5" stroke="white" stroke-width="3"/>
<rect x="11.5" y="31.5" width="5" height="5" stroke="white" stroke-width="3"/>
<rect x="22" y="10" width="3" height="3" fill="white"/>
<rect x="22" y="16" width="3" height="3" fill="white"/>
<rect x="31.5" y="11.5" width="5" height="5" stroke="white" stroke-width="3"/>
<rect x="10" y="21" width="6" height="3" fill="white"/>
<rect x="16" y="23" width="3" height="3" fill="white"/>
<rect x="35" y="25" width="3" height="3" fill="white"/>
<rect x="32" y="28" width="3" height="4" fill="white"/>
<rect x="35" y="32" width="3" height="3" fill="white"/>
<rect x="25" y="19" width="3" height="3" fill="white"/>
<rect x="25" y="29" width="3" height="3" fill="white"/>
<rect x="29" y="32" width="3" height="3" fill="white"/>
<rect x="25" y="10" width="3" height="6" fill="white"/>
<rect x="22" y="22" width="3" height="7" fill="white"/>
<rect x="22" y="32" width="3" height="6" fill="white"/>
<rect x="19" y="26" width="3" height="3" fill="white"/>
<rect x="28" y="22" width="7" height="3" fill="white"/>
<rect x="32" y="35" width="6" height="3" fill="white"/>
<path d="M36 6H42V12" stroke="white" stroke-width="2"/>
<path d="M36 42H42V36" stroke="white" stroke-width="2"/>
<path d="M12 42H6V36" stroke="white" stroke-width="2"/>
<path d="M12 6H6V12" stroke="white" stroke-width="2"/>
</svg>
