<svg width="90" height="81" viewBox="0 0 90 81" fill="none" xmlns="http://www.w3.org/2000/svg">
   <path d="M4.49622 76.0315L0 68.7695H2.43325L5.60453 74.125L8.72544 68.7695H11.0756L6.59446 76.0315V80.7163H4.49622V76.0315Z" fill="black"/>
   <path d="M15.6726 70.1915C18.2394 70.1915 19.3149 72.4497 19.3149 74.7431C19.3149 77.034 18.2419 79.2948 15.6726 79.2948C13.1059 79.2948 12.0328 77.0366 12.0328 74.7431C12.0303 72.4497 13.1059 70.1915 15.6726 70.1915ZM15.6726 68.4834C12.0832 68.4834 9.93457 71.3294 9.93457 74.7407C9.93457 78.1544 12.0832 80.9979 15.6726 80.9979C19.2646 80.9979 21.4106 78.1544 21.4106 74.7407C21.4106 71.3294 19.262 68.4834 15.6726 68.4834Z" fill="black"/>
   <path d="M22.4836 68.7695H24.5819V74.2079L29.9169 68.7695H32.5013L27.7204 73.5397L32.8388 80.7188H30.2217L26.2947 75.0142L24.5844 76.7047V80.7214H22.4862V68.7695H22.4836Z" fill="black"/>
   <path d="M37.2318 70.1915C39.7986 70.1915 40.8716 72.4497 40.8716 74.7431C40.8716 77.034 39.7986 79.2948 37.2318 79.2948C34.6651 79.2948 33.5895 77.0366 33.5895 74.7431C33.592 72.4497 34.6651 70.1915 37.2318 70.1915ZM37.2318 68.4834C33.6424 68.4834 31.4938 71.3294 31.4938 74.7407C31.4938 78.1544 33.6424 80.9979 37.2318 80.9979C40.8212 80.9979 42.9699 78.1544 42.9699 74.7407C42.9724 71.3294 40.8237 68.4834 37.2318 68.4834Z" fill="black"/>
   <path d="M54.8337 80.717H53.4912L53.1713 79.3103C52.0479 80.5813 51.0227 81.0008 49.5642 81.0008C45.9723 81.0008 43.8262 78.1573 43.8262 74.7436C43.8262 71.3298 45.9748 68.4863 49.5642 68.4863C52.1813 68.4863 54.3803 69.8754 54.6977 72.5682H52.6499C52.4484 70.9958 51.073 70.1919 49.5617 70.1919C46.9949 70.1919 45.9219 72.4502 45.9219 74.7436C45.9219 77.0345 46.9949 79.2952 49.5617 79.2952C51.7103 79.3279 52.8841 78.0392 52.9169 76.0146H49.7279V74.4246H54.8287V80.717H54.8337Z" fill="black"/>
   <path d="M60.8917 70.8268H60.9244H60.942L62.738 75.9637H59.0806L60.8917 70.8268ZM55.2191 80.7163H57.3828L58.5063 77.5538H63.2871L64.4106 80.7163H66.6574L62.0428 68.7695H59.8111L55.2191 80.7163Z" fill="black"/>
   <path d="M65.1184 68.7695H67.2494L69.4131 77.9055H69.4459L71.8615 68.7695H74.0101L76.3602 77.9055H76.393L78.6247 68.7695H80.7557L77.4509 80.7163H75.3199L72.9219 71.5804H72.8892L70.4383 80.7163H68.2746L65.1184 68.7695Z" fill="black"/>
   <path d="M84.2292 70.8268H84.262H84.2796L86.0756 75.9637H82.4181L84.2292 70.8268ZM78.5592 80.7163H80.7229L81.8464 77.5538H86.6272L87.7506 80.7163H90L85.3854 68.7695H83.1537L78.5592 80.7163Z" fill="black"/>
   <path d="M13.1964 31.7936C26.8765 39.3144 38.0503 50.809 45.1612 64.7151L45.141 64.7176C52.2443 50.814 63.4131 39.3219 77.0856 31.7986L77.0629 31.8187L45.1536 0L13.2266 31.8187L13.1964 31.7936Z" fill="#FFEE00"/>
</svg>